Coordinates
version=1
nRows=8
nColumns=40
inDegrees=yes

Units are S.I. units (second, meters, Newtons, ...)
If the header above contains a line with 'inDegrees', this indicates whether rotational values are in degrees (yes) or radians (no).

endheader
time	pelvis_tilt	pelvis_list	pelvis_rotation	pelvis_tx	pelvis_ty	pelvis_tz	hip_flexion_r	hip_adduction_r	hip_rotation_r	knee_angle_r	knee_angle_r_beta	ankle_angle_r	subtalar_angle_r	mtp_angle_r	hip_flexion_l	hip_adduction_l	hip_rotation_l	knee_angle_l	knee_angle_l_beta	ankle_angle_l	subtalar_angle_l	mtp_angle_l	lumbar_extension	lumbar_bending	lumbar_rotation	arm_flex_r	arm_add_r	arm_rot_r	elbow_flex_r	pro_sup_r	wrist_flex_r	wrist_dev_r	arm_flex_l	arm_add_l	arm_rot_l	elbow_flex_l	pro_sup_l	wrist_flex_l	wrist_dev_l
     12.30000000	     10.73508713	      5.92009121	    -11.57544515	      0.04741024	      1.31460607	      0.01917072	     25.05807864	    -24.57743983	    -17.79360741	     36.80067385	      0.64229293	    -27.51513254	    -24.37782751	      0.00000000	     59.21640068	     -1.13146286	      8.73555468	    100.41581761	      1.75258664	     -3.82966203	     -1.52155595	      0.00000000	    -59.93146798	     -2.47650010	    -12.27483563	     52.94831306	    -11.16546645	    -19.15807299	     47.83472456	     88.34074398	      0.00000000	      0.00000000	     60.85902949	     -5.93207760	    -17.13063074	     48.16861507	     87.61968629	      0.00000000	      0.00000000
     12.31700000	     10.58770779	      6.53619465	    -11.32034026	      0.04731364	      1.31397525	      0.01922188	     23.21788793	    -24.73137106	    -18.38779994	     35.64343418	      0.62209528	    -29.07608847	    -24.38947877	      0.00000000	     62.05278883	     -0.62164176	      7.43711081	    101.38681726	      1.76953378	     -2.68783162	     -1.51572438	      0.00000000	    -59.69304768	     -2.81702489	    -12.92544845	     52.80270789	    -11.44838972	    -18.91388100	     47.72532786	     88.34496303	      0.00000000	      0.00000000	     60.87059497	     -5.79176420	    -17.00305934	     48.26970694	     87.45488808	      0.00000000	      0.00000000
     12.33300000	     10.53605366	      7.05365399	    -10.94812653	      0.04736467	      1.31364050	      0.01917135	     21.48142022	    -24.88078590	    -19.01396308	     35.13460126	      0.61321447	    -30.31036606	    -25.23162551	      0.00000000	     64.54594539	     -0.04130739	      5.90423349	    101.78088229	      1.77641151	     -1.68095570	     -1.84626651	      0.00000000	    -59.59293784	     -2.96366584	    -13.60634616	     52.70542760	    -11.74409736	    -18.59256898	     47.64843720	     88.36274345	      0.00000000	      0.00000000	     60.80941457	     -5.61389098	    -17.03513681	     48.58907303	     87.45379725	      0.00000000	      0.00000000
     12.35000000	     10.51669094	      7.37780797	    -10.73422781	      0.04746656	      1.31348964	      0.01923452	     20.14190309	    -24.86256843	    -19.21900137	     35.35148005	      0.61699972	    -30.73637545	    -25.97651279	      0.00000000	     66.52946815	      0.32143773	      4.34762463	    101.54366863	      1.77227135	     -0.85027518	     -2.15809762	      0.00000000	    -59.60764805	     -3.09500249	    -14.00586065	     52.72819932	    -12.06187899	    -18.35832462	     47.51767019	     88.29696834	      0.00000000	      0.00000000	     60.81160673	     -5.37844621	    -17.04884684	     48.90127732	     87.30999732	      0.00000000	      0.00000000
     12.36700000	     10.58118342	      7.61770870	    -10.49166326	      0.04765858	      1.31353810	      0.01907234	     19.33374950	    -24.95178092	    -19.04540606	     36.59823943	      0.63875978	    -30.80614271	    -26.85222741	      0.00000000	     67.97839100	      0.74494974	      2.74510235	    100.62474618	      1.75623313	     -0.36868446	     -2.56725339	      0.00000000	    -59.80983347	     -3.05201125	    -14.45138678	     52.84791895	    -12.18614429	    -18.17108010	     47.62745229	     88.31689735	      0.00000000	      0.00000000	     60.84258466	     -5.22552618	    -17.30511120	     49.38025123	     87.56549014	      0.00000000	      0.00000000
     12.38300000	     10.68250667	      7.56210713	    -10.37503821	      0.04795353	      1.31382426	      0.01903127	     18.86056247	    -24.77615278	    -18.49648595	     38.59364553	      0.67358618	    -30.01352888	    -27.64846186	      0.00000000	     68.87022080	      0.91970495	      1.29323503	     99.13980898	      1.73031609	      0.14704625	     -2.77350541	      0.00000000	    -60.13654606	     -2.90113553	    -14.50577488	     53.02474277	    -12.38690739	    -18.07443525	     47.76451313	     88.30332762	      0.00000000	      0.00000000	     60.97658352	     -5.02010038	    -17.48518433	     49.74537684	     87.57335475	      0.00000000	      0.00000000
     12.40000000	     10.64283616	      7.69783895	    -10.54874712	      0.04815968	      1.31392913	      0.01895669	     19.35994148	    -24.87030495	    -17.21521202	     41.42099913	      0.72293281	    -29.10461279	    -27.92470964	      0.00000000	     69.32518125	      0.94027442	     -0.38490646	     97.12872211	      1.69521600	      0.48989335	     -3.17109345	      0.00000000	    -60.26756031	     -3.07578565	    -14.57127507	     53.20249548	    -12.47894142	    -18.07842767	     47.88479868	     88.29692990	      0.00000000	      0.00000000	     61.05882293	     -4.86451607	    -17.65646303	     50.12259400	     87.69904977	      0.00000000	      0.00000000
     12.41700000	     10.81117188	      7.27488237	    -10.57328696	      0.04849112	      1.31457059	      0.01875886	     19.71218567	    -24.60322849	    -16.35656757	     44.78607213	      0.78166442	    -28.09160207	    -28.52262221	      0.00000000	     68.87237228	      0.88359288	     -1.33049394	     94.73680626	      1.65346919	      0.88717247	     -3.14558759	      0.00000000	    -60.63376341	     -2.78703359	    -14.31105776	     53.45602799	    -12.51569950	    -18.05802518	     47.94361754	     88.29362852	      0.00000000	      0.00000000	     61.11873373	     -4.85627463	    -17.69590892	     50.40115857	     87.66331823	      0.00000000	      0.00000000
